HIERARCHY
ROOT Hips
{
	OFFSET -0.179506 -22.333345 2.821913
	CHANNELS 6 Xposition Yposition Zposition Zrotation Yrotation Xrotation 
	JOINT LeftUpLeg
	{
		OFFSET 6.951974 -9.140623 -0.681533
		CHANNELS 3 Zrotation Yrotation Xrotation
		JOINT LeftLeg
		{
			OFFSET 3.427654 -37.519855 -0.449580
			CHANNELS 3 Zrotation Yrotation Xrotation
			JOINT LeftFoot
			{
				OFFSET -1.359570 -39.796059 -4.369333
				CHANNELS 3 Zrotation Yrotation Xrotation
				JOINT LeftToe
				{
					OFFSET 2.635814 -5.579078 11.928840
					CHANNELS 3 Zrotation Yrotation Xrotation
					End Site
					{
						OFFSET 0.000000 0.000000 0.000000
					}
				}
			}
		}
	}
	JOINT RightUpLeg
	{
		OFFSET -6.767048 -9.052170 -0.431982
		CHANNELS 3 Zrotation Yrotation Xrotation
		JOINT RightLeg
		{
			OFFSET -3.829005 -38.256897 -0.885003
			CHANNELS 3 Zrotation Yrotation Xrotation
			JOINT RightFoot
			{
				OFFSET 1.577377 -39.841461 -4.231180
				CHANNELS 3 Zrotation Yrotation Xrotation
				JOINT RightToe
				{
					OFFSET -2.537174 -4.814398 12.334795
					CHANNELS 3 Zrotation Yrotation Xrotation
					End Site
					{
						OFFSET 0.000000 0.000000 0.000000
					}
				}
			}
		}
	}
	JOINT Spine
	{
		OFFSET -0.253288 10.896323 -2.669631
		CHANNELS 3 Zrotation Yrotation Xrotation
		JOINT Spine1
		{
			OFFSET 0.548704 13.518043 0.109247
			CHANNELS 3 Zrotation Yrotation Xrotation
			JOINT Spine2
			{
				OFFSET 0.145701 5.292222 2.542457
				CHANNELS 3 Zrotation Yrotation Xrotation
				JOINT Neck
				{
					OFFSET -0.277840 21.387037 -4.285703
					CHANNELS 3 Zrotation Yrotation Xrotation
					JOINT Head
					{
						OFFSET 0.515184 6.496960 5.134897
						CHANNELS 3 Zrotation Yrotation Xrotation
						End Site
						{
							OFFSET 0.000000 0.000000 0.000000
						}
					}
				}
				JOINT LeftShoulder
				{
					OFFSET 7.884473 12.174932 -3.408961
					CHANNELS 3 Zrotation Yrotation Xrotation
					JOINT LeftArm
					{
						OFFSET 9.097692 3.046888 -0.886815
						CHANNELS 3 Zrotation Yrotation Xrotation
						JOINT LeftForeArm
						{
							OFFSET 25.961220 -1.277207 -2.745643
							CHANNELS 3 Zrotation Yrotation Xrotation
							JOINT LeftHand
							{
								OFFSET 24.923361 0.898606 -0.117091
								CHANNELS 3 Zrotation Yrotation Xrotation
								End Site
								{
									OFFSET 0.000000 0.000000 0.000000
								}
							}
						}
					}
				}
				JOINT RightShoulder
				{
					OFFSET -8.175920 11.883285 -3.861528
					CHANNELS 3 Zrotation Yrotation Xrotation
					JOINT RightArm
					{
						OFFSET -9.601238 3.255117 -0.914307
						CHANNELS 3 Zrotation Yrotation Xrotation
						JOINT RightForeArm
						{
							OFFSET -25.374195 -1.332924 -2.140099
							CHANNELS 3 Zrotation Yrotation Xrotation
							JOINT RightHand
							{
								OFFSET -25.529810 0.777228 -0.555919
								CHANNELS 3 Zrotation Yrotation Xrotation
								End Site
								{
									OFFSET 0.000000 0.000000 0.000000
								}
							}
						}
					}
				}
			}
		}
	}
}
MOTION
Frames: 7
Frame Time: 0.033333
-32.743965 16.195860 87.721680 -137.444317 -2.299418 86.080048 0.955967 -6.930368 -28.127878 -5.276821 10.809011 29.582373 2.052471 7.606034 -15.288450 nan nan nan -5.025783 -1.566455 20.464734 2.428021 5.862474 34.865817 12.464770 5.919491 1.518885 nan nan nan -3.342291 14.228142 14.127334 2.526625 -1.819985 8.287433 0.690484 1.962674 -2.506634 3.977432 3.618047 -13.770614 -4.227764 -9.046021 0.914177 -21.999785 4.886407 5.652840 -66.798075 10.499790 2.826002 15.696868 -10.420900 21.500637 -15.202397 -13.675395 -6.394264 24.379984 7.188235 -1.528961 53.591630 16.623916 12.834968 -29.960001 53.587521 -7.617065 5.899898 26.047239 -24.736705 
-33.920227 17.113602 87.884201 -136.982393 -2.330656 86.099903 0.247380 -6.770937 -27.252905 -5.275931 10.005958 29.784296 2.567242 7.676875 -16.027147 nan nan nan -4.889984 -1.594842 18.824728 2.203498 5.186634 38.045943 12.718268 4.764105 4.185860 nan nan nan -3.505861 13.769443 14.440381 2.560945 -1.723721 7.447877 0.726973 1.934740 -2.024350 4.002611 3.564038 -13.824667 -4.297915 -8.884595 1.108749 -21.803594 4.691385 5.856949 -66.920248 9.959589 2.927634 15.464443 -10.725739 21.604113 -14.812792 -13.968110 -6.482558 24.296550 6.851424 -1.565879 53.929121 15.694772 13.313599 -29.185683 53.104794 -6.672859 4.996827 25.198926 -26.263520 
-35.112747 17.956738 88.077927 -136.481134 -2.406053 86.142064 -0.595284 -6.591239 -26.394899 -5.204373 9.391382 29.898916 3.297792 7.848730 -16.530431 nan nan nan -4.919799 -1.618885 17.043785 1.983598 4.406373 41.191185 12.426515 3.018705 6.445984 nan nan nan -3.538546 13.212169 14.731636 2.519347 -1.573320 6.824602 0.703770 1.774779 -1.729825 3.885629 3.184959 -13.755667 -4.184988 -8.502836 1.094568 -21.808800 4.618868 6.048651 -66.933257 9.236807 3.128860 15.296689 -10.969772 21.317883 -14.615701 -14.195191 -6.805232 24.316226 6.550010 -1.657363 54.236176 14.859546 13.771551 -28.113418 52.011878 -6.533512 4.389002 24.851828 -26.491509 
-36.365894 18.759911 88.270477 -135.776229 -2.454452 86.214133 -1.392116 -6.626250 -25.660800 -5.249012 8.748807 30.068314 4.305178 8.255175 -16.937092 nan nan nan -4.938606 -1.637447 15.318079 2.047748 3.683290 44.147096 11.713262 0.906040 7.792390 nan nan nan -3.452317 12.523603 14.778256 2.514170 -1.497056 6.582696 0.642921 1.478369 -1.569910 3.669221 2.741923 -13.744545 -4.091329 -7.813952 1.176295 -21.929584 4.590901 6.205339 -66.824284 8.488402 3.400510 14.935923 -11.314397 20.988955 -14.452828 -14.302145 -7.331812 24.369504 6.251217 -1.713725 54.361447 14.162746 14.151256 -26.676277 50.700287 -6.246427 3.881757 25.048598 -25.505471 
-37.620163 19.557114 88.485329 -135.093008 -2.525453 86.194636 -2.124351 -6.622559 -24.754180 -5.389027 8.088453 30.126237 5.177337 8.505577 -17.353175 nan nan nan -5.045948 -1.681427 13.704507 2.264915 3.058079 46.969458 10.990203 -0.653145 8.102369 nan nan nan -3.339883 11.775767 14.857514 2.511595 -1.490140 6.348360 0.568207 1.225556 -1.323323 3.432975 2.423932 -13.781353 -4.065240 -7.285147 1.400481 -22.098527 4.468912 6.384563 -66.732479 7.804390 3.736266 14.529475 -11.820523 20.825859 -13.826538 -14.451791 -8.044647 24.380317 5.986239 -1.757318 54.603296 13.564966 14.327769 -25.267448 49.405803 -5.676619 3.885340 25.414427 -25.077209 
-38.850998 20.358341 88.731354 -134.514408 -2.642868 86.138926 -2.798306 -6.745675 -23.687493 -5.527780 7.554445 30.012975 5.666368 8.691956 -17.569536 nan nan nan -5.259249 -1.664923 12.069928 2.389752 2.318340 49.629979 10.351717 -1.564094 7.831008 nan nan nan -3.342034 11.098783 15.117114 2.508779 -1.529514 5.865161 0.523023 1.061188 -0.983953 3.219082 2.189272 -13.796436 -3.978294 -7.007556 1.578493 -22.189165 4.432299 6.267526 -66.807055 7.240071 4.094865 14.421239 -12.410702 20.521066 -13.518170 -14.325768 -8.114507 24.607572 5.639253 -1.993225 54.744172 12.947672 14.172653 -24.148032 48.218932 -5.236912 5.820957 25.465064 -23.351641 
-40.037857 21.166023 89.006348 -133.965757 -2.721641 86.010253 -3.375990 -7.073004 -22.482647 -5.621686 7.066470 29.727565 6.060729 9.093466 -17.668934 nan nan nan -5.389546 -1.500368 10.481598 2.432971 1.376764 52.035739 9.500051 -2.481934 7.223193 nan nan nan -3.421812 10.601263 15.480980 2.617785 -1.449195 5.421050 0.601229 0.760943 -0.679142 3.071741 2.038582 -13.954682 -3.970886 -6.812036 1.803947 -22.307349 4.341667 6.097879 -66.903611 6.545770 4.597325 14.244335 -12.862243 20.219185 -13.222223 -14.428074 -7.565844 24.824941 5.230079 -2.286004 54.734622 12.184421 14.155687 -23.090265 47.352168 -4.669791 7.221099 25.081784 -21.693197 
